%TF.GenerationSoftware,KiCad,Pcbnew,7.0.0-da2b9df05c~163~ubuntu20.04.1*%
%TF.CreationDate,2023-02-22T20:56:31-05:00*%
%TF.ProjectId,rgb_sw,7267625f-7377-42e6-9b69-6361645f7063,V1.0.0*%
%TF.SameCoordinates,Original*%
%TF.FileFunction,Legend,Top*%
%TF.FilePolarity,Positive*%
%FSLAX46Y46*%
G04 Gerber Fmt 4.6, Leading zero omitted, Abs format (unit mm)*
G04 Created by KiCad (PCBNEW 7.0.0-da2b9df05c~163~ubuntu20.04.1) date 2023-02-22 20:56:31*
%MOMM*%
%LPD*%
G01*
G04 APERTURE LIST*
%ADD10C,0.300000*%
%ADD11C,0.150000*%
%ADD12C,0.120000*%
G04 APERTURE END LIST*
D10*
X155745000Y-109357142D02*
X155673571Y-109500000D01*
X155673571Y-109500000D02*
X155673571Y-109714285D01*
X155673571Y-109714285D02*
X155745000Y-109928571D01*
X155745000Y-109928571D02*
X155887857Y-110071428D01*
X155887857Y-110071428D02*
X156030714Y-110142857D01*
X156030714Y-110142857D02*
X156316428Y-110214285D01*
X156316428Y-110214285D02*
X156530714Y-110214285D01*
X156530714Y-110214285D02*
X156816428Y-110142857D01*
X156816428Y-110142857D02*
X156959285Y-110071428D01*
X156959285Y-110071428D02*
X157102142Y-109928571D01*
X157102142Y-109928571D02*
X157173571Y-109714285D01*
X157173571Y-109714285D02*
X157173571Y-109571428D01*
X157173571Y-109571428D02*
X157102142Y-109357142D01*
X157102142Y-109357142D02*
X157030714Y-109285714D01*
X157030714Y-109285714D02*
X156530714Y-109285714D01*
X156530714Y-109285714D02*
X156530714Y-109571428D01*
X157173571Y-108642857D02*
X155673571Y-108642857D01*
X155673571Y-108642857D02*
X157173571Y-107785714D01*
X157173571Y-107785714D02*
X155673571Y-107785714D01*
X157173571Y-107071428D02*
X155673571Y-107071428D01*
X155673571Y-107071428D02*
X155673571Y-106714285D01*
X155673571Y-106714285D02*
X155745000Y-106499999D01*
X155745000Y-106499999D02*
X155887857Y-106357142D01*
X155887857Y-106357142D02*
X156030714Y-106285713D01*
X156030714Y-106285713D02*
X156316428Y-106214285D01*
X156316428Y-106214285D02*
X156530714Y-106214285D01*
X156530714Y-106214285D02*
X156816428Y-106285713D01*
X156816428Y-106285713D02*
X156959285Y-106357142D01*
X156959285Y-106357142D02*
X157102142Y-106499999D01*
X157102142Y-106499999D02*
X157173571Y-106714285D01*
X157173571Y-106714285D02*
X157173571Y-107071428D01*
X154673571Y-109357142D02*
X154673571Y-110214285D01*
X154673571Y-109785714D02*
X153173571Y-109785714D01*
X153173571Y-109785714D02*
X153387857Y-109928571D01*
X153387857Y-109928571D02*
X153530714Y-110071428D01*
X153530714Y-110071428D02*
X153602142Y-110214285D01*
X153316428Y-108785714D02*
X153245000Y-108714286D01*
X153245000Y-108714286D02*
X153173571Y-108571429D01*
X153173571Y-108571429D02*
X153173571Y-108214286D01*
X153173571Y-108214286D02*
X153245000Y-108071429D01*
X153245000Y-108071429D02*
X153316428Y-108000000D01*
X153316428Y-108000000D02*
X153459285Y-107928571D01*
X153459285Y-107928571D02*
X153602142Y-107928571D01*
X153602142Y-107928571D02*
X153816428Y-108000000D01*
X153816428Y-108000000D02*
X154673571Y-108857143D01*
X154673571Y-108857143D02*
X154673571Y-107928571D01*
X153173571Y-107500000D02*
X154673571Y-107000000D01*
X154673571Y-107000000D02*
X153173571Y-106500000D01*
X150173571Y-109607142D02*
X150173571Y-110464285D01*
X150173571Y-110035714D02*
X148673571Y-110035714D01*
X148673571Y-110035714D02*
X148887857Y-110178571D01*
X148887857Y-110178571D02*
X149030714Y-110321428D01*
X149030714Y-110321428D02*
X149102142Y-110464285D01*
X148816428Y-109035714D02*
X148745000Y-108964286D01*
X148745000Y-108964286D02*
X148673571Y-108821429D01*
X148673571Y-108821429D02*
X148673571Y-108464286D01*
X148673571Y-108464286D02*
X148745000Y-108321429D01*
X148745000Y-108321429D02*
X148816428Y-108250000D01*
X148816428Y-108250000D02*
X148959285Y-108178571D01*
X148959285Y-108178571D02*
X149102142Y-108178571D01*
X149102142Y-108178571D02*
X149316428Y-108250000D01*
X149316428Y-108250000D02*
X150173571Y-109107143D01*
X150173571Y-109107143D02*
X150173571Y-108178571D01*
X148673571Y-107750000D02*
X150173571Y-107250000D01*
X150173571Y-107250000D02*
X148673571Y-106750000D01*
X146887857Y-109892857D02*
X146959285Y-109678571D01*
X146959285Y-109678571D02*
X147030714Y-109607142D01*
X147030714Y-109607142D02*
X147173571Y-109535714D01*
X147173571Y-109535714D02*
X147387857Y-109535714D01*
X147387857Y-109535714D02*
X147530714Y-109607142D01*
X147530714Y-109607142D02*
X147602142Y-109678571D01*
X147602142Y-109678571D02*
X147673571Y-109821428D01*
X147673571Y-109821428D02*
X147673571Y-110392857D01*
X147673571Y-110392857D02*
X146173571Y-110392857D01*
X146173571Y-110392857D02*
X146173571Y-109892857D01*
X146173571Y-109892857D02*
X146245000Y-109750000D01*
X146245000Y-109750000D02*
X146316428Y-109678571D01*
X146316428Y-109678571D02*
X146459285Y-109607142D01*
X146459285Y-109607142D02*
X146602142Y-109607142D01*
X146602142Y-109607142D02*
X146745000Y-109678571D01*
X146745000Y-109678571D02*
X146816428Y-109750000D01*
X146816428Y-109750000D02*
X146887857Y-109892857D01*
X146887857Y-109892857D02*
X146887857Y-110392857D01*
X145173571Y-109535714D02*
X144459285Y-110035714D01*
X145173571Y-110392857D02*
X143673571Y-110392857D01*
X143673571Y-110392857D02*
X143673571Y-109821428D01*
X143673571Y-109821428D02*
X143745000Y-109678571D01*
X143745000Y-109678571D02*
X143816428Y-109607142D01*
X143816428Y-109607142D02*
X143959285Y-109535714D01*
X143959285Y-109535714D02*
X144173571Y-109535714D01*
X144173571Y-109535714D02*
X144316428Y-109607142D01*
X144316428Y-109607142D02*
X144387857Y-109678571D01*
X144387857Y-109678571D02*
X144459285Y-109821428D01*
X144459285Y-109821428D02*
X144459285Y-110392857D01*
X141245000Y-109607142D02*
X141173571Y-109750000D01*
X141173571Y-109750000D02*
X141173571Y-109964285D01*
X141173571Y-109964285D02*
X141245000Y-110178571D01*
X141245000Y-110178571D02*
X141387857Y-110321428D01*
X141387857Y-110321428D02*
X141530714Y-110392857D01*
X141530714Y-110392857D02*
X141816428Y-110464285D01*
X141816428Y-110464285D02*
X142030714Y-110464285D01*
X142030714Y-110464285D02*
X142316428Y-110392857D01*
X142316428Y-110392857D02*
X142459285Y-110321428D01*
X142459285Y-110321428D02*
X142602142Y-110178571D01*
X142602142Y-110178571D02*
X142673571Y-109964285D01*
X142673571Y-109964285D02*
X142673571Y-109821428D01*
X142673571Y-109821428D02*
X142602142Y-109607142D01*
X142602142Y-109607142D02*
X142530714Y-109535714D01*
X142530714Y-109535714D02*
X142030714Y-109535714D01*
X142030714Y-109535714D02*
X142030714Y-109821428D01*
D11*
%TO.C,R3*%
X140433333Y-101607380D02*
X140100000Y-101131190D01*
X139861905Y-101607380D02*
X139861905Y-100607380D01*
X139861905Y-100607380D02*
X140242857Y-100607380D01*
X140242857Y-100607380D02*
X140338095Y-100655000D01*
X140338095Y-100655000D02*
X140385714Y-100702619D01*
X140385714Y-100702619D02*
X140433333Y-100797857D01*
X140433333Y-100797857D02*
X140433333Y-100940714D01*
X140433333Y-100940714D02*
X140385714Y-101035952D01*
X140385714Y-101035952D02*
X140338095Y-101083571D01*
X140338095Y-101083571D02*
X140242857Y-101131190D01*
X140242857Y-101131190D02*
X139861905Y-101131190D01*
X140766667Y-100607380D02*
X141385714Y-100607380D01*
X141385714Y-100607380D02*
X141052381Y-100988333D01*
X141052381Y-100988333D02*
X141195238Y-100988333D01*
X141195238Y-100988333D02*
X141290476Y-101035952D01*
X141290476Y-101035952D02*
X141338095Y-101083571D01*
X141338095Y-101083571D02*
X141385714Y-101178809D01*
X141385714Y-101178809D02*
X141385714Y-101416904D01*
X141385714Y-101416904D02*
X141338095Y-101512142D01*
X141338095Y-101512142D02*
X141290476Y-101559761D01*
X141290476Y-101559761D02*
X141195238Y-101607380D01*
X141195238Y-101607380D02*
X140909524Y-101607380D01*
X140909524Y-101607380D02*
X140814286Y-101559761D01*
X140814286Y-101559761D02*
X140766667Y-101512142D01*
%TO.C,R2*%
X155853333Y-93477380D02*
X155520000Y-93001190D01*
X155281905Y-93477380D02*
X155281905Y-92477380D01*
X155281905Y-92477380D02*
X155662857Y-92477380D01*
X155662857Y-92477380D02*
X155758095Y-92525000D01*
X155758095Y-92525000D02*
X155805714Y-92572619D01*
X155805714Y-92572619D02*
X155853333Y-92667857D01*
X155853333Y-92667857D02*
X155853333Y-92810714D01*
X155853333Y-92810714D02*
X155805714Y-92905952D01*
X155805714Y-92905952D02*
X155758095Y-92953571D01*
X155758095Y-92953571D02*
X155662857Y-93001190D01*
X155662857Y-93001190D02*
X155281905Y-93001190D01*
X156234286Y-92572619D02*
X156281905Y-92525000D01*
X156281905Y-92525000D02*
X156377143Y-92477380D01*
X156377143Y-92477380D02*
X156615238Y-92477380D01*
X156615238Y-92477380D02*
X156710476Y-92525000D01*
X156710476Y-92525000D02*
X156758095Y-92572619D01*
X156758095Y-92572619D02*
X156805714Y-92667857D01*
X156805714Y-92667857D02*
X156805714Y-92763095D01*
X156805714Y-92763095D02*
X156758095Y-92905952D01*
X156758095Y-92905952D02*
X156186667Y-93477380D01*
X156186667Y-93477380D02*
X156805714Y-93477380D01*
%TO.C,R1*%
X143463333Y-93487380D02*
X143130000Y-93011190D01*
X142891905Y-93487380D02*
X142891905Y-92487380D01*
X142891905Y-92487380D02*
X143272857Y-92487380D01*
X143272857Y-92487380D02*
X143368095Y-92535000D01*
X143368095Y-92535000D02*
X143415714Y-92582619D01*
X143415714Y-92582619D02*
X143463333Y-92677857D01*
X143463333Y-92677857D02*
X143463333Y-92820714D01*
X143463333Y-92820714D02*
X143415714Y-92915952D01*
X143415714Y-92915952D02*
X143368095Y-92963571D01*
X143368095Y-92963571D02*
X143272857Y-93011190D01*
X143272857Y-93011190D02*
X142891905Y-93011190D01*
X144415714Y-93487380D02*
X143844286Y-93487380D01*
X144130000Y-93487380D02*
X144130000Y-92487380D01*
X144130000Y-92487380D02*
X144034762Y-92630238D01*
X144034762Y-92630238D02*
X143939524Y-92725476D01*
X143939524Y-92725476D02*
X143844286Y-92773095D01*
%TO.C,Q3*%
X160294761Y-83462619D02*
X160199523Y-83415000D01*
X160199523Y-83415000D02*
X160104285Y-83319761D01*
X160104285Y-83319761D02*
X159961428Y-83176904D01*
X159961428Y-83176904D02*
X159866190Y-83129285D01*
X159866190Y-83129285D02*
X159770952Y-83129285D01*
X159818571Y-83367380D02*
X159723333Y-83319761D01*
X159723333Y-83319761D02*
X159628095Y-83224523D01*
X159628095Y-83224523D02*
X159580476Y-83034047D01*
X159580476Y-83034047D02*
X159580476Y-82700714D01*
X159580476Y-82700714D02*
X159628095Y-82510238D01*
X159628095Y-82510238D02*
X159723333Y-82415000D01*
X159723333Y-82415000D02*
X159818571Y-82367380D01*
X159818571Y-82367380D02*
X160009047Y-82367380D01*
X160009047Y-82367380D02*
X160104285Y-82415000D01*
X160104285Y-82415000D02*
X160199523Y-82510238D01*
X160199523Y-82510238D02*
X160247142Y-82700714D01*
X160247142Y-82700714D02*
X160247142Y-83034047D01*
X160247142Y-83034047D02*
X160199523Y-83224523D01*
X160199523Y-83224523D02*
X160104285Y-83319761D01*
X160104285Y-83319761D02*
X160009047Y-83367380D01*
X160009047Y-83367380D02*
X159818571Y-83367380D01*
X160580476Y-82367380D02*
X161199523Y-82367380D01*
X161199523Y-82367380D02*
X160866190Y-82748333D01*
X160866190Y-82748333D02*
X161009047Y-82748333D01*
X161009047Y-82748333D02*
X161104285Y-82795952D01*
X161104285Y-82795952D02*
X161151904Y-82843571D01*
X161151904Y-82843571D02*
X161199523Y-82938809D01*
X161199523Y-82938809D02*
X161199523Y-83176904D01*
X161199523Y-83176904D02*
X161151904Y-83272142D01*
X161151904Y-83272142D02*
X161104285Y-83319761D01*
X161104285Y-83319761D02*
X161009047Y-83367380D01*
X161009047Y-83367380D02*
X160723333Y-83367380D01*
X160723333Y-83367380D02*
X160628095Y-83319761D01*
X160628095Y-83319761D02*
X160580476Y-83272142D01*
%TO.C,Q2*%
X149344761Y-83462619D02*
X149249523Y-83415000D01*
X149249523Y-83415000D02*
X149154285Y-83319761D01*
X149154285Y-83319761D02*
X149011428Y-83176904D01*
X149011428Y-83176904D02*
X148916190Y-83129285D01*
X148916190Y-83129285D02*
X148820952Y-83129285D01*
X148868571Y-83367380D02*
X148773333Y-83319761D01*
X148773333Y-83319761D02*
X148678095Y-83224523D01*
X148678095Y-83224523D02*
X148630476Y-83034047D01*
X148630476Y-83034047D02*
X148630476Y-82700714D01*
X148630476Y-82700714D02*
X148678095Y-82510238D01*
X148678095Y-82510238D02*
X148773333Y-82415000D01*
X148773333Y-82415000D02*
X148868571Y-82367380D01*
X148868571Y-82367380D02*
X149059047Y-82367380D01*
X149059047Y-82367380D02*
X149154285Y-82415000D01*
X149154285Y-82415000D02*
X149249523Y-82510238D01*
X149249523Y-82510238D02*
X149297142Y-82700714D01*
X149297142Y-82700714D02*
X149297142Y-83034047D01*
X149297142Y-83034047D02*
X149249523Y-83224523D01*
X149249523Y-83224523D02*
X149154285Y-83319761D01*
X149154285Y-83319761D02*
X149059047Y-83367380D01*
X149059047Y-83367380D02*
X148868571Y-83367380D01*
X149678095Y-82462619D02*
X149725714Y-82415000D01*
X149725714Y-82415000D02*
X149820952Y-82367380D01*
X149820952Y-82367380D02*
X150059047Y-82367380D01*
X150059047Y-82367380D02*
X150154285Y-82415000D01*
X150154285Y-82415000D02*
X150201904Y-82462619D01*
X150201904Y-82462619D02*
X150249523Y-82557857D01*
X150249523Y-82557857D02*
X150249523Y-82653095D01*
X150249523Y-82653095D02*
X150201904Y-82795952D01*
X150201904Y-82795952D02*
X149630476Y-83367380D01*
X149630476Y-83367380D02*
X150249523Y-83367380D01*
%TO.C,Q1*%
X137904761Y-83962619D02*
X137809523Y-83915000D01*
X137809523Y-83915000D02*
X137714285Y-83819761D01*
X137714285Y-83819761D02*
X137571428Y-83676904D01*
X137571428Y-83676904D02*
X137476190Y-83629285D01*
X137476190Y-83629285D02*
X137380952Y-83629285D01*
X137428571Y-83867380D02*
X137333333Y-83819761D01*
X137333333Y-83819761D02*
X137238095Y-83724523D01*
X137238095Y-83724523D02*
X137190476Y-83534047D01*
X137190476Y-83534047D02*
X137190476Y-83200714D01*
X137190476Y-83200714D02*
X137238095Y-83010238D01*
X137238095Y-83010238D02*
X137333333Y-82915000D01*
X137333333Y-82915000D02*
X137428571Y-82867380D01*
X137428571Y-82867380D02*
X137619047Y-82867380D01*
X137619047Y-82867380D02*
X137714285Y-82915000D01*
X137714285Y-82915000D02*
X137809523Y-83010238D01*
X137809523Y-83010238D02*
X137857142Y-83200714D01*
X137857142Y-83200714D02*
X137857142Y-83534047D01*
X137857142Y-83534047D02*
X137809523Y-83724523D01*
X137809523Y-83724523D02*
X137714285Y-83819761D01*
X137714285Y-83819761D02*
X137619047Y-83867380D01*
X137619047Y-83867380D02*
X137428571Y-83867380D01*
X138809523Y-83867380D02*
X138238095Y-83867380D01*
X138523809Y-83867380D02*
X138523809Y-82867380D01*
X138523809Y-82867380D02*
X138428571Y-83010238D01*
X138428571Y-83010238D02*
X138333333Y-83105476D01*
X138333333Y-83105476D02*
X138238095Y-83153095D01*
%TO.C,J2*%
X139037380Y-112833333D02*
X139751666Y-112833333D01*
X139751666Y-112833333D02*
X139894523Y-112880952D01*
X139894523Y-112880952D02*
X139989761Y-112976190D01*
X139989761Y-112976190D02*
X140037380Y-113119047D01*
X140037380Y-113119047D02*
X140037380Y-113214285D01*
X139132619Y-112404761D02*
X139085000Y-112357142D01*
X139085000Y-112357142D02*
X139037380Y-112261904D01*
X139037380Y-112261904D02*
X139037380Y-112023809D01*
X139037380Y-112023809D02*
X139085000Y-111928571D01*
X139085000Y-111928571D02*
X139132619Y-111880952D01*
X139132619Y-111880952D02*
X139227857Y-111833333D01*
X139227857Y-111833333D02*
X139323095Y-111833333D01*
X139323095Y-111833333D02*
X139465952Y-111880952D01*
X139465952Y-111880952D02*
X140037380Y-112452380D01*
X140037380Y-112452380D02*
X140037380Y-111833333D01*
%TO.C,J1*%
X151367380Y-112833333D02*
X152081666Y-112833333D01*
X152081666Y-112833333D02*
X152224523Y-112880952D01*
X152224523Y-112880952D02*
X152319761Y-112976190D01*
X152319761Y-112976190D02*
X152367380Y-113119047D01*
X152367380Y-113119047D02*
X152367380Y-113214285D01*
X152367380Y-111833333D02*
X152367380Y-112404761D01*
X152367380Y-112119047D02*
X151367380Y-112119047D01*
X151367380Y-112119047D02*
X151510238Y-112214285D01*
X151510238Y-112214285D02*
X151605476Y-112309523D01*
X151605476Y-112309523D02*
X151653095Y-112404761D01*
%TO.C,C3*%
X164652142Y-100241554D02*
X164699761Y-100289173D01*
X164699761Y-100289173D02*
X164747380Y-100432030D01*
X164747380Y-100432030D02*
X164747380Y-100527268D01*
X164747380Y-100527268D02*
X164699761Y-100670125D01*
X164699761Y-100670125D02*
X164604523Y-100765363D01*
X164604523Y-100765363D02*
X164509285Y-100812982D01*
X164509285Y-100812982D02*
X164318809Y-100860601D01*
X164318809Y-100860601D02*
X164175952Y-100860601D01*
X164175952Y-100860601D02*
X163985476Y-100812982D01*
X163985476Y-100812982D02*
X163890238Y-100765363D01*
X163890238Y-100765363D02*
X163795000Y-100670125D01*
X163795000Y-100670125D02*
X163747380Y-100527268D01*
X163747380Y-100527268D02*
X163747380Y-100432030D01*
X163747380Y-100432030D02*
X163795000Y-100289173D01*
X163795000Y-100289173D02*
X163842619Y-100241554D01*
X163747380Y-99908220D02*
X163747380Y-99289173D01*
X163747380Y-99289173D02*
X164128333Y-99622506D01*
X164128333Y-99622506D02*
X164128333Y-99479649D01*
X164128333Y-99479649D02*
X164175952Y-99384411D01*
X164175952Y-99384411D02*
X164223571Y-99336792D01*
X164223571Y-99336792D02*
X164318809Y-99289173D01*
X164318809Y-99289173D02*
X164556904Y-99289173D01*
X164556904Y-99289173D02*
X164652142Y-99336792D01*
X164652142Y-99336792D02*
X164699761Y-99384411D01*
X164699761Y-99384411D02*
X164747380Y-99479649D01*
X164747380Y-99479649D02*
X164747380Y-99765363D01*
X164747380Y-99765363D02*
X164699761Y-99860601D01*
X164699761Y-99860601D02*
X164652142Y-99908220D01*
%TO.C,C2*%
X153942142Y-100571554D02*
X153989761Y-100619173D01*
X153989761Y-100619173D02*
X154037380Y-100762030D01*
X154037380Y-100762030D02*
X154037380Y-100857268D01*
X154037380Y-100857268D02*
X153989761Y-101000125D01*
X153989761Y-101000125D02*
X153894523Y-101095363D01*
X153894523Y-101095363D02*
X153799285Y-101142982D01*
X153799285Y-101142982D02*
X153608809Y-101190601D01*
X153608809Y-101190601D02*
X153465952Y-101190601D01*
X153465952Y-101190601D02*
X153275476Y-101142982D01*
X153275476Y-101142982D02*
X153180238Y-101095363D01*
X153180238Y-101095363D02*
X153085000Y-101000125D01*
X153085000Y-101000125D02*
X153037380Y-100857268D01*
X153037380Y-100857268D02*
X153037380Y-100762030D01*
X153037380Y-100762030D02*
X153085000Y-100619173D01*
X153085000Y-100619173D02*
X153132619Y-100571554D01*
X153132619Y-100190601D02*
X153085000Y-100142982D01*
X153085000Y-100142982D02*
X153037380Y-100047744D01*
X153037380Y-100047744D02*
X153037380Y-99809649D01*
X153037380Y-99809649D02*
X153085000Y-99714411D01*
X153085000Y-99714411D02*
X153132619Y-99666792D01*
X153132619Y-99666792D02*
X153227857Y-99619173D01*
X153227857Y-99619173D02*
X153323095Y-99619173D01*
X153323095Y-99619173D02*
X153465952Y-99666792D01*
X153465952Y-99666792D02*
X154037380Y-100238220D01*
X154037380Y-100238220D02*
X154037380Y-99619173D01*
%TO.C,C1*%
X141122142Y-103691554D02*
X141169761Y-103739173D01*
X141169761Y-103739173D02*
X141217380Y-103882030D01*
X141217380Y-103882030D02*
X141217380Y-103977268D01*
X141217380Y-103977268D02*
X141169761Y-104120125D01*
X141169761Y-104120125D02*
X141074523Y-104215363D01*
X141074523Y-104215363D02*
X140979285Y-104262982D01*
X140979285Y-104262982D02*
X140788809Y-104310601D01*
X140788809Y-104310601D02*
X140645952Y-104310601D01*
X140645952Y-104310601D02*
X140455476Y-104262982D01*
X140455476Y-104262982D02*
X140360238Y-104215363D01*
X140360238Y-104215363D02*
X140265000Y-104120125D01*
X140265000Y-104120125D02*
X140217380Y-103977268D01*
X140217380Y-103977268D02*
X140217380Y-103882030D01*
X140217380Y-103882030D02*
X140265000Y-103739173D01*
X140265000Y-103739173D02*
X140312619Y-103691554D01*
X141217380Y-102739173D02*
X141217380Y-103310601D01*
X141217380Y-103024887D02*
X140217380Y-103024887D01*
X140217380Y-103024887D02*
X140360238Y-103120125D01*
X140360238Y-103120125D02*
X140455476Y-103215363D01*
X140455476Y-103215363D02*
X140503095Y-103310601D01*
D12*
%TO.C,R3*%
X136560000Y-98870000D02*
X137330000Y-98870000D01*
X144640000Y-98870000D02*
X143870000Y-98870000D01*
X143870000Y-100240000D02*
X143870000Y-97500000D01*
X137330000Y-97500000D02*
X137330000Y-100240000D01*
X143870000Y-97500000D02*
X137330000Y-97500000D01*
X137330000Y-100240000D02*
X143870000Y-100240000D01*
%TO.C,R2*%
X160060000Y-95480000D02*
X159290000Y-95480000D01*
X151980000Y-95480000D02*
X152750000Y-95480000D01*
X152750000Y-94110000D02*
X152750000Y-96850000D01*
X159290000Y-96850000D02*
X159290000Y-94110000D01*
X152750000Y-96850000D02*
X159290000Y-96850000D01*
X159290000Y-94110000D02*
X152750000Y-94110000D01*
%TO.C,R1*%
X146900000Y-94120000D02*
X140360000Y-94120000D01*
X140360000Y-96860000D02*
X146900000Y-96860000D01*
X146900000Y-96860000D02*
X146900000Y-94120000D01*
X140360000Y-94120000D02*
X140360000Y-96860000D01*
X139590000Y-95490000D02*
X140360000Y-95490000D01*
X147670000Y-95490000D02*
X146900000Y-95490000D01*
%TO.C,Q3*%
X155270000Y-71940000D02*
X155270000Y-87830000D01*
X155270000Y-71940000D02*
X165510000Y-71940000D01*
X165510000Y-71940000D02*
X165510000Y-87830000D01*
X155270000Y-87830000D02*
X165510000Y-87830000D01*
X160390000Y-87830000D02*
X160390000Y-90370000D01*
X162930000Y-87830000D02*
X162930000Y-90370000D01*
X157850000Y-87830000D02*
X157850000Y-90370000D01*
%TO.C,Q2*%
X144320000Y-71940000D02*
X144320000Y-87830000D01*
X144320000Y-71940000D02*
X154560000Y-71940000D01*
X154560000Y-71940000D02*
X154560000Y-87830000D01*
X144320000Y-87830000D02*
X154560000Y-87830000D01*
X149440000Y-87830000D02*
X149440000Y-90370000D01*
X151980000Y-87830000D02*
X151980000Y-90370000D01*
X146900000Y-87830000D02*
X146900000Y-90370000D01*
%TO.C,Q1*%
X133290000Y-72060000D02*
X133290000Y-87950000D01*
X133290000Y-72060000D02*
X143530000Y-72060000D01*
X143530000Y-72060000D02*
X143530000Y-87950000D01*
X133290000Y-87950000D02*
X143530000Y-87950000D01*
X138410000Y-87950000D02*
X138410000Y-90490000D01*
X140950000Y-87950000D02*
X140950000Y-90490000D01*
X135870000Y-87950000D02*
X135870000Y-90490000D01*
%TO.C,J2*%
X143270000Y-113830000D02*
X150950000Y-113830000D01*
X140670000Y-113830000D02*
X140670000Y-112500000D01*
X143270000Y-113830000D02*
X143270000Y-111170000D01*
X150950000Y-113830000D02*
X150950000Y-111170000D01*
X142000000Y-113830000D02*
X140670000Y-113830000D01*
X143270000Y-111170000D02*
X150950000Y-111170000D01*
%TO.C,J1*%
X154000000Y-113830000D02*
X152670000Y-113830000D01*
X157870000Y-113830000D02*
X157870000Y-111170000D01*
X155270000Y-113830000D02*
X157870000Y-113830000D01*
X155270000Y-113830000D02*
X155270000Y-111170000D01*
X152670000Y-113830000D02*
X152670000Y-112500000D01*
X155270000Y-111170000D02*
X157870000Y-111170000D01*
%TO.C,C3*%
X159590000Y-101155888D02*
X158282000Y-101155888D01*
X162329000Y-102035888D02*
X161670000Y-102035888D01*
X161949000Y-102315888D02*
X161670000Y-102315888D01*
X162013000Y-102275888D02*
X161670000Y-102275888D01*
X159590000Y-100554888D02*
X158094000Y-100554888D01*
X162877000Y-101355888D02*
X161670000Y-101355888D01*
X163210000Y-100074888D02*
X158050000Y-100074888D01*
X159590000Y-101235888D02*
X158320000Y-101235888D01*
X159590000Y-101915888D02*
X158804000Y-101915888D01*
X159590000Y-101515888D02*
X158481000Y-101515888D01*
X159590000Y-100795888D02*
X158150000Y-100795888D01*
X159590000Y-101555888D02*
X158508000Y-101555888D01*
X162073000Y-102235888D02*
X161670000Y-102235888D01*
X163209000Y-100154888D02*
X158051000Y-100154888D01*
X162665000Y-101675888D02*
X161670000Y-101675888D01*
X161148000Y-102635888D02*
X160112000Y-102635888D01*
X163085000Y-100875888D02*
X161670000Y-100875888D01*
X162854000Y-101395888D02*
X161670000Y-101395888D01*
X159590000Y-101195888D02*
X158301000Y-101195888D01*
X159590000Y-101995888D02*
X158887000Y-101995888D01*
X159590000Y-101715888D02*
X158626000Y-101715888D01*
X159590000Y-102315888D02*
X159311000Y-102315888D01*
X159590000Y-102355888D02*
X159379000Y-102355888D01*
X159590000Y-101875888D02*
X158766000Y-101875888D01*
X159590000Y-100634888D02*
X158110000Y-100634888D01*
X163166000Y-100554888D02*
X161670000Y-100554888D01*
X163110000Y-100795888D02*
X161670000Y-100795888D01*
X163044000Y-100995888D02*
X161670000Y-100995888D01*
X159590000Y-100754888D02*
X158139000Y-100754888D01*
X161307000Y-102595888D02*
X159953000Y-102595888D01*
X162805000Y-101475888D02*
X161670000Y-101475888D01*
X159590000Y-100835888D02*
X158162000Y-100835888D01*
X162415000Y-101955888D02*
X161670000Y-101955888D01*
X159590000Y-102235888D02*
X159187000Y-102235888D01*
X162567000Y-101795888D02*
X161670000Y-101795888D01*
X162779000Y-101515888D02*
X161670000Y-101515888D01*
X162959000Y-101195888D02*
X161670000Y-101195888D01*
X159590000Y-100434888D02*
X158074000Y-100434888D01*
X159590000Y-102275888D02*
X159247000Y-102275888D01*
X163141000Y-100674888D02*
X161670000Y-100674888D01*
X161728000Y-102435888D02*
X159532000Y-102435888D01*
X162373000Y-101995888D02*
X161670000Y-101995888D01*
X159590000Y-100314888D02*
X158061000Y-100314888D01*
X159590000Y-100594888D02*
X158102000Y-100594888D01*
X163173000Y-100514888D02*
X161670000Y-100514888D01*
X163206000Y-100234888D02*
X158054000Y-100234888D01*
X162725000Y-101595888D02*
X161670000Y-101595888D01*
X159590000Y-101315888D02*
X158362000Y-101315888D01*
X163012000Y-101075888D02*
X161670000Y-101075888D01*
X159590000Y-100714888D02*
X158129000Y-100714888D01*
X163158000Y-100594888D02*
X161670000Y-100594888D01*
X163210000Y-100114888D02*
X158050000Y-100114888D01*
X162995000Y-101115888D02*
X161670000Y-101115888D01*
X159590000Y-102075888D02*
X158977000Y-102075888D01*
X163131000Y-100714888D02*
X161670000Y-100714888D01*
X163191000Y-100394888D02*
X161670000Y-100394888D01*
X162830000Y-101435888D02*
X161670000Y-101435888D01*
X159590000Y-101675888D02*
X158595000Y-101675888D01*
X162456000Y-101915888D02*
X161670000Y-101915888D01*
X159590000Y-100474888D02*
X158080000Y-100474888D01*
X163072000Y-100915888D02*
X161670000Y-100915888D01*
X163150000Y-100634888D02*
X161670000Y-100634888D01*
X163180000Y-100474888D02*
X161670000Y-100474888D01*
X159590000Y-101475888D02*
X158455000Y-101475888D01*
X159590000Y-101035888D02*
X158232000Y-101035888D01*
X163208000Y-100194888D02*
X158052000Y-100194888D01*
X163203000Y-100274888D02*
X158057000Y-100274888D01*
X163199000Y-100314888D02*
X161670000Y-100314888D01*
X159590000Y-100674888D02*
X158119000Y-100674888D01*
X159590000Y-101955888D02*
X158845000Y-101955888D01*
X162920000Y-101275888D02*
X161670000Y-101275888D01*
X162695000Y-101635888D02*
X161670000Y-101635888D01*
X159590000Y-101115888D02*
X158265000Y-101115888D01*
X162283000Y-102075888D02*
X161670000Y-102075888D01*
X163186000Y-100434888D02*
X161670000Y-100434888D01*
X159590000Y-101795888D02*
X158693000Y-101795888D01*
X159590000Y-100915888D02*
X158188000Y-100915888D01*
X159590000Y-101635888D02*
X158565000Y-101635888D01*
X159590000Y-101355888D02*
X158383000Y-101355888D01*
X159590000Y-101835888D02*
X158729000Y-101835888D01*
X159590000Y-100875888D02*
X158175000Y-100875888D01*
X159590000Y-101395888D02*
X158406000Y-101395888D01*
X163028000Y-101035888D02*
X161670000Y-101035888D01*
X162105000Y-97270113D02*
X162105000Y-97770113D01*
X159590000Y-102115888D02*
X159025000Y-102115888D01*
X161435000Y-102555888D02*
X159825000Y-102555888D01*
X161881000Y-102355888D02*
X161670000Y-102355888D01*
X159590000Y-100955888D02*
X158202000Y-100955888D01*
X159590000Y-100354888D02*
X158065000Y-100354888D01*
X160914000Y-102675888D02*
X160346000Y-102675888D01*
X163058000Y-100955888D02*
X161670000Y-100955888D01*
X161641000Y-102475888D02*
X159619000Y-102475888D01*
X159590000Y-101075888D02*
X158248000Y-101075888D01*
X162634000Y-101715888D02*
X161670000Y-101715888D01*
X162130000Y-102195888D02*
X161670000Y-102195888D01*
X161808000Y-102395888D02*
X159452000Y-102395888D01*
X162752000Y-101555888D02*
X161670000Y-101555888D01*
X159590000Y-101435888D02*
X158430000Y-101435888D01*
X159590000Y-100995888D02*
X158216000Y-100995888D01*
X162355000Y-97520113D02*
X161855000Y-97520113D01*
X162978000Y-101155888D02*
X161670000Y-101155888D01*
X162601000Y-101755888D02*
X161670000Y-101755888D01*
X163121000Y-100754888D02*
X161670000Y-100754888D01*
X159590000Y-101595888D02*
X158535000Y-101595888D01*
X159590000Y-100394888D02*
X158069000Y-100394888D01*
X159590000Y-101275888D02*
X158340000Y-101275888D01*
X162898000Y-101315888D02*
X161670000Y-101315888D01*
X162184000Y-102155888D02*
X161670000Y-102155888D01*
X162940000Y-101235888D02*
X161670000Y-101235888D01*
X159590000Y-102155888D02*
X159076000Y-102155888D01*
X161545000Y-102515888D02*
X159715000Y-102515888D01*
X159590000Y-101755888D02*
X158659000Y-101755888D01*
X163195000Y-100354888D02*
X161670000Y-100354888D01*
X159590000Y-102195888D02*
X159130000Y-102195888D01*
X162531000Y-101835888D02*
X161670000Y-101835888D01*
X159590000Y-100514888D02*
X158087000Y-100514888D01*
X162235000Y-102115888D02*
X161670000Y-102115888D01*
X163098000Y-100835888D02*
X161670000Y-100835888D01*
X159590000Y-102035888D02*
X158931000Y-102035888D01*
X162494000Y-101875888D02*
X161670000Y-101875888D01*
X163250000Y-100074888D02*
G75*
G03*
X163250000Y-100074888I-2620000J0D01*
G01*
%TO.C,C2*%
X148880000Y-101485888D02*
X147572000Y-101485888D01*
X151619000Y-102365888D02*
X150960000Y-102365888D01*
X151239000Y-102645888D02*
X150960000Y-102645888D01*
X151303000Y-102605888D02*
X150960000Y-102605888D01*
X148880000Y-100884888D02*
X147384000Y-100884888D01*
X152167000Y-101685888D02*
X150960000Y-101685888D01*
X152500000Y-100404888D02*
X147340000Y-100404888D01*
X148880000Y-101565888D02*
X147610000Y-101565888D01*
X148880000Y-102245888D02*
X148094000Y-102245888D01*
X148880000Y-101845888D02*
X147771000Y-101845888D01*
X148880000Y-101125888D02*
X147440000Y-101125888D01*
X148880000Y-101885888D02*
X147798000Y-101885888D01*
X151363000Y-102565888D02*
X150960000Y-102565888D01*
X152499000Y-100484888D02*
X147341000Y-100484888D01*
X151955000Y-102005888D02*
X150960000Y-102005888D01*
X150438000Y-102965888D02*
X149402000Y-102965888D01*
X152375000Y-101205888D02*
X150960000Y-101205888D01*
X152144000Y-101725888D02*
X150960000Y-101725888D01*
X148880000Y-101525888D02*
X147591000Y-101525888D01*
X148880000Y-102325888D02*
X148177000Y-102325888D01*
X148880000Y-102045888D02*
X147916000Y-102045888D01*
X148880000Y-102645888D02*
X148601000Y-102645888D01*
X148880000Y-102685888D02*
X148669000Y-102685888D01*
X148880000Y-102205888D02*
X148056000Y-102205888D01*
X148880000Y-100964888D02*
X147400000Y-100964888D01*
X152456000Y-100884888D02*
X150960000Y-100884888D01*
X152400000Y-101125888D02*
X150960000Y-101125888D01*
X152334000Y-101325888D02*
X150960000Y-101325888D01*
X148880000Y-101084888D02*
X147429000Y-101084888D01*
X150597000Y-102925888D02*
X149243000Y-102925888D01*
X152095000Y-101805888D02*
X150960000Y-101805888D01*
X148880000Y-101165888D02*
X147452000Y-101165888D01*
X151705000Y-102285888D02*
X150960000Y-102285888D01*
X148880000Y-102565888D02*
X148477000Y-102565888D01*
X151857000Y-102125888D02*
X150960000Y-102125888D01*
X152069000Y-101845888D02*
X150960000Y-101845888D01*
X152249000Y-101525888D02*
X150960000Y-101525888D01*
X148880000Y-100764888D02*
X147364000Y-100764888D01*
X148880000Y-102605888D02*
X148537000Y-102605888D01*
X152431000Y-101004888D02*
X150960000Y-101004888D01*
X151018000Y-102765888D02*
X148822000Y-102765888D01*
X151663000Y-102325888D02*
X150960000Y-102325888D01*
X148880000Y-100644888D02*
X147351000Y-100644888D01*
X148880000Y-100924888D02*
X147392000Y-100924888D01*
X152463000Y-100844888D02*
X150960000Y-100844888D01*
X152496000Y-100564888D02*
X147344000Y-100564888D01*
X152015000Y-101925888D02*
X150960000Y-101925888D01*
X148880000Y-101645888D02*
X147652000Y-101645888D01*
X152302000Y-101405888D02*
X150960000Y-101405888D01*
X148880000Y-101044888D02*
X147419000Y-101044888D01*
X152448000Y-100924888D02*
X150960000Y-100924888D01*
X152500000Y-100444888D02*
X147340000Y-100444888D01*
X152285000Y-101445888D02*
X150960000Y-101445888D01*
X148880000Y-102405888D02*
X148267000Y-102405888D01*
X152421000Y-101044888D02*
X150960000Y-101044888D01*
X152481000Y-100724888D02*
X150960000Y-100724888D01*
X152120000Y-101765888D02*
X150960000Y-101765888D01*
X148880000Y-102005888D02*
X147885000Y-102005888D01*
X151746000Y-102245888D02*
X150960000Y-102245888D01*
X148880000Y-100804888D02*
X147370000Y-100804888D01*
X152362000Y-101245888D02*
X150960000Y-101245888D01*
X152440000Y-100964888D02*
X150960000Y-100964888D01*
X152470000Y-100804888D02*
X150960000Y-100804888D01*
X148880000Y-101805888D02*
X147745000Y-101805888D01*
X148880000Y-101365888D02*
X147522000Y-101365888D01*
X152498000Y-100524888D02*
X147342000Y-100524888D01*
X152493000Y-100604888D02*
X147347000Y-100604888D01*
X152489000Y-100644888D02*
X150960000Y-100644888D01*
X148880000Y-101004888D02*
X147409000Y-101004888D01*
X148880000Y-102285888D02*
X148135000Y-102285888D01*
X152210000Y-101605888D02*
X150960000Y-101605888D01*
X151985000Y-101965888D02*
X150960000Y-101965888D01*
X148880000Y-101445888D02*
X147555000Y-101445888D01*
X151573000Y-102405888D02*
X150960000Y-102405888D01*
X152476000Y-100764888D02*
X150960000Y-100764888D01*
X148880000Y-102125888D02*
X147983000Y-102125888D01*
X148880000Y-101245888D02*
X147478000Y-101245888D01*
X148880000Y-101965888D02*
X147855000Y-101965888D01*
X148880000Y-101685888D02*
X147673000Y-101685888D01*
X148880000Y-102165888D02*
X148019000Y-102165888D01*
X148880000Y-101205888D02*
X147465000Y-101205888D01*
X148880000Y-101725888D02*
X147696000Y-101725888D01*
X152318000Y-101365888D02*
X150960000Y-101365888D01*
X151395000Y-97600113D02*
X151395000Y-98100113D01*
X148880000Y-102445888D02*
X148315000Y-102445888D01*
X150725000Y-102885888D02*
X149115000Y-102885888D01*
X151171000Y-102685888D02*
X150960000Y-102685888D01*
X148880000Y-101285888D02*
X147492000Y-101285888D01*
X148880000Y-100684888D02*
X147355000Y-100684888D01*
X150204000Y-103005888D02*
X149636000Y-103005888D01*
X152348000Y-101285888D02*
X150960000Y-101285888D01*
X150931000Y-102805888D02*
X148909000Y-102805888D01*
X148880000Y-101405888D02*
X147538000Y-101405888D01*
X151924000Y-102045888D02*
X150960000Y-102045888D01*
X151420000Y-102525888D02*
X150960000Y-102525888D01*
X151098000Y-102725888D02*
X148742000Y-102725888D01*
X152042000Y-101885888D02*
X150960000Y-101885888D01*
X148880000Y-101765888D02*
X147720000Y-101765888D01*
X148880000Y-101325888D02*
X147506000Y-101325888D01*
X151645000Y-97850113D02*
X151145000Y-97850113D01*
X152268000Y-101485888D02*
X150960000Y-101485888D01*
X151891000Y-102085888D02*
X150960000Y-102085888D01*
X152411000Y-101084888D02*
X150960000Y-101084888D01*
X148880000Y-101925888D02*
X147825000Y-101925888D01*
X148880000Y-100724888D02*
X147359000Y-100724888D01*
X148880000Y-101605888D02*
X147630000Y-101605888D01*
X152188000Y-101645888D02*
X150960000Y-101645888D01*
X151474000Y-102485888D02*
X150960000Y-102485888D01*
X152230000Y-101565888D02*
X150960000Y-101565888D01*
X148880000Y-102485888D02*
X148366000Y-102485888D01*
X150835000Y-102845888D02*
X149005000Y-102845888D01*
X148880000Y-102085888D02*
X147949000Y-102085888D01*
X152485000Y-100684888D02*
X150960000Y-100684888D01*
X148880000Y-102525888D02*
X148420000Y-102525888D01*
X151821000Y-102165888D02*
X150960000Y-102165888D01*
X148880000Y-100844888D02*
X147377000Y-100844888D01*
X151525000Y-102445888D02*
X150960000Y-102445888D01*
X152388000Y-101165888D02*
X150960000Y-101165888D01*
X148880000Y-102365888D02*
X148221000Y-102365888D01*
X151784000Y-102205888D02*
X150960000Y-102205888D01*
X152540000Y-100404888D02*
G75*
G03*
X152540000Y-100404888I-2620000J0D01*
G01*
%TO.C,C1*%
X136060000Y-104605888D02*
X134752000Y-104605888D01*
X138799000Y-105485888D02*
X138140000Y-105485888D01*
X138419000Y-105765888D02*
X138140000Y-105765888D01*
X138483000Y-105725888D02*
X138140000Y-105725888D01*
X136060000Y-104004888D02*
X134564000Y-104004888D01*
X139347000Y-104805888D02*
X138140000Y-104805888D01*
X139680000Y-103524888D02*
X134520000Y-103524888D01*
X136060000Y-104685888D02*
X134790000Y-104685888D01*
X136060000Y-105365888D02*
X135274000Y-105365888D01*
X136060000Y-104965888D02*
X134951000Y-104965888D01*
X136060000Y-104245888D02*
X134620000Y-104245888D01*
X136060000Y-105005888D02*
X134978000Y-105005888D01*
X138543000Y-105685888D02*
X138140000Y-105685888D01*
X139679000Y-103604888D02*
X134521000Y-103604888D01*
X139135000Y-105125888D02*
X138140000Y-105125888D01*
X137618000Y-106085888D02*
X136582000Y-106085888D01*
X139555000Y-104325888D02*
X138140000Y-104325888D01*
X139324000Y-104845888D02*
X138140000Y-104845888D01*
X136060000Y-104645888D02*
X134771000Y-104645888D01*
X136060000Y-105445888D02*
X135357000Y-105445888D01*
X136060000Y-105165888D02*
X135096000Y-105165888D01*
X136060000Y-105765888D02*
X135781000Y-105765888D01*
X136060000Y-105805888D02*
X135849000Y-105805888D01*
X136060000Y-105325888D02*
X135236000Y-105325888D01*
X136060000Y-104084888D02*
X134580000Y-104084888D01*
X139636000Y-104004888D02*
X138140000Y-104004888D01*
X139580000Y-104245888D02*
X138140000Y-104245888D01*
X139514000Y-104445888D02*
X138140000Y-104445888D01*
X136060000Y-104204888D02*
X134609000Y-104204888D01*
X137777000Y-106045888D02*
X136423000Y-106045888D01*
X139275000Y-104925888D02*
X138140000Y-104925888D01*
X136060000Y-104285888D02*
X134632000Y-104285888D01*
X138885000Y-105405888D02*
X138140000Y-105405888D01*
X136060000Y-105685888D02*
X135657000Y-105685888D01*
X139037000Y-105245888D02*
X138140000Y-105245888D01*
X139249000Y-104965888D02*
X138140000Y-104965888D01*
X139429000Y-104645888D02*
X138140000Y-104645888D01*
X136060000Y-103884888D02*
X134544000Y-103884888D01*
X136060000Y-105725888D02*
X135717000Y-105725888D01*
X139611000Y-104124888D02*
X138140000Y-104124888D01*
X138198000Y-105885888D02*
X136002000Y-105885888D01*
X138843000Y-105445888D02*
X138140000Y-105445888D01*
X136060000Y-103764888D02*
X134531000Y-103764888D01*
X136060000Y-104044888D02*
X134572000Y-104044888D01*
X139643000Y-103964888D02*
X138140000Y-103964888D01*
X139676000Y-103684888D02*
X134524000Y-103684888D01*
X139195000Y-105045888D02*
X138140000Y-105045888D01*
X136060000Y-104765888D02*
X134832000Y-104765888D01*
X139482000Y-104525888D02*
X138140000Y-104525888D01*
X136060000Y-104164888D02*
X134599000Y-104164888D01*
X139628000Y-104044888D02*
X138140000Y-104044888D01*
X139680000Y-103564888D02*
X134520000Y-103564888D01*
X139465000Y-104565888D02*
X138140000Y-104565888D01*
X136060000Y-105525888D02*
X135447000Y-105525888D01*
X139601000Y-104164888D02*
X138140000Y-104164888D01*
X139661000Y-103844888D02*
X138140000Y-103844888D01*
X139300000Y-104885888D02*
X138140000Y-104885888D01*
X136060000Y-105125888D02*
X135065000Y-105125888D01*
X138926000Y-105365888D02*
X138140000Y-105365888D01*
X136060000Y-103924888D02*
X134550000Y-103924888D01*
X139542000Y-104365888D02*
X138140000Y-104365888D01*
X139620000Y-104084888D02*
X138140000Y-104084888D01*
X139650000Y-103924888D02*
X138140000Y-103924888D01*
X136060000Y-104925888D02*
X134925000Y-104925888D01*
X136060000Y-104485888D02*
X134702000Y-104485888D01*
X139678000Y-103644888D02*
X134522000Y-103644888D01*
X139673000Y-103724888D02*
X134527000Y-103724888D01*
X139669000Y-103764888D02*
X138140000Y-103764888D01*
X136060000Y-104124888D02*
X134589000Y-104124888D01*
X136060000Y-105405888D02*
X135315000Y-105405888D01*
X139390000Y-104725888D02*
X138140000Y-104725888D01*
X139165000Y-105085888D02*
X138140000Y-105085888D01*
X136060000Y-104565888D02*
X134735000Y-104565888D01*
X138753000Y-105525888D02*
X138140000Y-105525888D01*
X139656000Y-103884888D02*
X138140000Y-103884888D01*
X136060000Y-105245888D02*
X135163000Y-105245888D01*
X136060000Y-104365888D02*
X134658000Y-104365888D01*
X136060000Y-105085888D02*
X135035000Y-105085888D01*
X136060000Y-104805888D02*
X134853000Y-104805888D01*
X136060000Y-105285888D02*
X135199000Y-105285888D01*
X136060000Y-104325888D02*
X134645000Y-104325888D01*
X136060000Y-104845888D02*
X134876000Y-104845888D01*
X139498000Y-104485888D02*
X138140000Y-104485888D01*
X138575000Y-100720113D02*
X138575000Y-101220113D01*
X136060000Y-105565888D02*
X135495000Y-105565888D01*
X137905000Y-106005888D02*
X136295000Y-106005888D01*
X138351000Y-105805888D02*
X138140000Y-105805888D01*
X136060000Y-104405888D02*
X134672000Y-104405888D01*
X136060000Y-103804888D02*
X134535000Y-103804888D01*
X137384000Y-106125888D02*
X136816000Y-106125888D01*
X139528000Y-104405888D02*
X138140000Y-104405888D01*
X138111000Y-105925888D02*
X136089000Y-105925888D01*
X136060000Y-104525888D02*
X134718000Y-104525888D01*
X139104000Y-105165888D02*
X138140000Y-105165888D01*
X138600000Y-105645888D02*
X138140000Y-105645888D01*
X138278000Y-105845888D02*
X135922000Y-105845888D01*
X139222000Y-105005888D02*
X138140000Y-105005888D01*
X136060000Y-104885888D02*
X134900000Y-104885888D01*
X136060000Y-104445888D02*
X134686000Y-104445888D01*
X138825000Y-100970113D02*
X138325000Y-100970113D01*
X139448000Y-104605888D02*
X138140000Y-104605888D01*
X139071000Y-105205888D02*
X138140000Y-105205888D01*
X139591000Y-104204888D02*
X138140000Y-104204888D01*
X136060000Y-105045888D02*
X135005000Y-105045888D01*
X136060000Y-103844888D02*
X134539000Y-103844888D01*
X136060000Y-104725888D02*
X134810000Y-104725888D01*
X139368000Y-104765888D02*
X138140000Y-104765888D01*
X138654000Y-105605888D02*
X138140000Y-105605888D01*
X139410000Y-104685888D02*
X138140000Y-104685888D01*
X136060000Y-105605888D02*
X135546000Y-105605888D01*
X138015000Y-105965888D02*
X136185000Y-105965888D01*
X136060000Y-105205888D02*
X135129000Y-105205888D01*
X139665000Y-103804888D02*
X138140000Y-103804888D01*
X136060000Y-105645888D02*
X135600000Y-105645888D01*
X139001000Y-105285888D02*
X138140000Y-105285888D01*
X136060000Y-103964888D02*
X134557000Y-103964888D01*
X138705000Y-105565888D02*
X138140000Y-105565888D01*
X139568000Y-104285888D02*
X138140000Y-104285888D01*
X136060000Y-105485888D02*
X135401000Y-105485888D01*
X138964000Y-105325888D02*
X138140000Y-105325888D01*
X139720000Y-103524888D02*
G75*
G03*
X139720000Y-103524888I-2620000J0D01*
G01*
%TD*%
M02*
